<svg xmlns="http://www.w3.org/2000/svg" version="1.1" xmlns:xlink="http://www.w3.org/1999/xlink" xmlns:svgjs="http://svgjs.com/svgjs" width="1920" height="1080" preserveAspectRatio="none" viewBox="0 0 1920 1080"><g mask="url(&quot;#SvgjsMask1851&quot;)" fill="none"><rect width="1920" height="1080" x="0" y="0" fill="rgba(18, 18, 18, 1)"></rect><use xlink:href="#SvgjsG1875" transform="translate(0, 0)" fill="rgba(22, 22, 29, 1)"></use><use xlink:href="#SvgjsG1875" transform="translate(0, 620)" fill="rgba(22, 22, 29, 1)"></use><use xlink:href="#SvgjsG1875" transform="translate(620, 0)" fill="rgba(22, 22, 29, 1)"></use><use xlink:href="#SvgjsG1875" transform="translate(620, 620)" fill="rgba(22, 22, 29, 1)"></use><use xlink:href="#SvgjsG1875" transform="translate(1240, 0)" fill="rgba(22, 22, 29, 1)"></use><use xlink:href="#SvgjsG1875" transform="translate(1240, 620)" fill="rgba(22, 22, 29, 1)"></use><use xlink:href="#SvgjsG1875" transform="translate(1860, 0)" fill="rgba(22, 22, 29, 1)"></use><use xlink:href="#SvgjsG1875" transform="translate(1860, 620)" fill="rgba(22, 22, 29, 1)"></use></g><defs><mask id="SvgjsMask1851"><rect width="1920" height="1080" fill="#ffffff"></rect></mask><g id="SvgjsG1858"><path d="M6.498 9.304L12.139 3.663l1.565 1.566-5.641 5.641z"></path><path d="M6.8 0.457h2.541v8.028H6.8z"></path><path d="M8.072 10.876L2.429 5.238l1.563-1.566L9.636 9.313zM1.2 13.277h13.733v2.266H1.2z"></path><path d="M0.733 9.143h2.267v6.4h-2.267z m12.267 0h2.267v6.4h-2.267z"></path></g><g id="SvgjsG1873"><path d="M7.713 15.485C3.459 15.485 0 12.025 0 7.768 0 3.513 3.459 0.051 7.713 0.051S15.432 3.513 15.432 7.768c0 4.257-3.465 7.716-7.719 7.717z m0-1.91c3.201 0 5.81-2.604 5.81-5.809 0-3.199-2.61-5.807-5.81-5.807-3.202 0-5.804 2.609-5.804 5.807-0.001 3.206 2.602 5.809 5.804 5.809z"></path><path d="M7.753 8.787a0.574 0.574 0 0 1-0.554-0.042 0.578 0.578 0 0 1-0.259-0.399L6.931 3.862a0.58 0.58 0 0 1 1.162 0v3.478l2.975-1.4a0.578 0.578 0 0 1 0.773 0.275c0.138 0.292 0.011 0.637-0.276 0.774l-3.81 1.798z"></path></g><g id="SvgjsG1870"><path d="M2.524 8.637H0.014V7.308h2.51v1.329zM3.656 4.576L1.884 2.804l0.935-0.935 1.772 1.772-0.935 0.935z m0 6.817l0.935 0.935-1.772 1.773-0.934-0.936 1.771-1.772z m4.997-8.884h-1.33V-0.002h1.33v2.511z m-1.33 10.952h1.33v2.51h-1.33v-2.509zM12.344 4.576l-0.96-0.935 1.796-1.772 0.935 0.935-1.772 1.772z m0 6.792l1.771 1.797-0.935 0.936-1.771-1.774 0.936-0.96z m3.643-4.06v1.329h-2.51V7.308h2.509z"></path><path d="M3.702 7.984a4.184 4.184 0 1 0 8.368 0 4.184 4.184 0 1 0-8.368 0"></path></g><g id="SvgjsG1871"><path d="M15.233 9.431c0.295 0 0.569-0.239 0.61-0.532 0 0 0.056-0.411 0.056-0.899s-0.056-0.899-0.056-0.899c-0.041-0.292-0.315-0.531-0.61-0.53h-1.524c-0.295 0-0.602-0.188-0.681-0.418s-0.188-0.967 0.021-1.176l1.078-1.077c0.209-0.209 0.225-0.565 0.036-0.792l-1.268-1.268c-0.227-0.189-0.583-0.173-0.792 0.036l-1.078 1.077c-0.208 0.209-0.556 0.293-0.772 0.187s-0.822-0.552-0.821-0.847V0.767c0-0.295-0.239-0.569-0.531-0.61 0 0-0.411-0.057-0.9-0.056s-0.899 0.057-0.899 0.056c-0.293 0.04-0.532 0.315-0.532 0.61v1.524c0 0.295-0.188 0.601-0.418 0.681s-0.967 0.188-1.176-0.021l-1.078-1.078C3.689 1.665 3.333 1.649 3.107 1.837l-1.268 1.268c-0.189 0.227-0.173 0.583 0.036 0.792l1.077 1.078c0.209 0.209 0.293 0.556 0.187 0.772s-0.552 0.822-0.847 0.822H0.767c-0.295 0-0.569 0.239-0.61 0.531 0 0-0.057 0.411-0.056 0.899s0.057 0.899 0.056 0.9c0.04 0.293 0.315 0.532 0.61 0.532h1.525c0.295 0 0.601 0.188 0.681 0.417 0.079 0.23 0.188 0.967-0.02 1.176l-1.078 1.077C1.667 12.311 1.651 12.667 1.84 12.893l1.267 1.268c0.227 0.189 0.583 0.173 0.792-0.036l1.077-1.077c0.209-0.208 0.556-0.292 0.772-0.187s0.821 0.553 0.822 0.848v1.524c0 0.295 0.239 0.569 0.532 0.61 0 0 0.411 0.057 0.899 0.057s0.899-0.056 0.899-0.057c0.293-0.04 0.531-0.315 0.532-0.609v-1.524c0-0.295 0.188-0.602 0.418-0.681 0.23-0.079 0.967-0.188 1.176 0.021l1.077 1.077c0.209 0.209 0.565 0.225 0.792 0.036l1.268-1.267c0.189-0.227 0.173-0.583-0.036-0.792l-1.078-1.077c-0.209-0.209-0.293-0.557-0.186-0.773 0.106-0.216 0.552-0.822 0.847-0.822h1.525zM8 10.892c-1.597 0-2.891-1.294-2.891-2.892 0-1.596 1.295-2.891 2.891-2.891S10.892 6.404 10.892 8 9.597 10.892 8 10.892z"></path></g><g id="SvgjsG1869"><path d="M1.099-0.001l13.803 7.969-13.803 7.969V-0.002z" fill-rule="evenodd"></path></g><g id="SvgjsG1857"><path d="M7.357 2.676c0.737 0.058 1.384-0.493 1.442-1.229 0.057-0.738-0.495-1.384-1.231-1.443A1.34 1.34 0 0 0 7.357 2.677m0.367 2.686c0.418 0.078 0.732 0.448 0.733 0.89a0.906 0.906 0 0 1-0.906 0.906H4.615a0.575 0.575 0 0 1-0.575-0.575c0-0.077 0.016-0.151 0.043-0.218L4.4 5.624l3.535-2.532h-1.684c-0.647-0.018-1.101 0.207-1.363 0.717-0.177 0.343-1.115 2.439-1.115 2.439a0.906 0.906 0 0 0 0.842 1.242h1.147l-0.338 2.224L3.644 14.857a0.867 0.867 0 0 0 0.55 1.094c0.453 0.151 0.944-0.097 1.094-0.551L7.334 9.598c0.399 0.649 1.194 1.811 1.329 2.031 0.031 0.365 0.317 3.582 0.317 3.582a0.867 0.867 0 0 0 0.939 0.786c0.476-0.041 0.828-0.464 0.786-0.939L10.368 11.271a0.854 0.854 0 0 0-0.126-0.378L8.771 8.508l0.234-2.992s0.348 1.184 0.375 1.27c0.075 0.244 0.244 0.42 0.416 0.56 0.101 0.08 1.818 1.25 1.818 1.249 0.096 0.044 0.174 0.083 0.277 0.09a0.604 0.604 0 0 0 0.65-0.554 0.608 0.608 0 0 0-0.236-0.53s-1.711-1.175-1.781-1.226c-0.057-0.043-0.102-0.118-0.113-0.157L9.733 3.779c-0.11-0.369-0.482-0.687-0.952-0.687h-0.202l-0.855 2.271z"></path><path d="M7.551 6.828a0.575 0.575 0 0 0 0.575-0.576c0-0.296-0.226-0.538-0.514-0.568l-0.42 1.147 0.359-0.003z"></path></g><g><path d="M3.394 6.906c0.819-0.002 1.483-0.667 1.487-1.488-0.004-0.821-0.669-1.486-1.487-1.487a1.485 1.485 0 0 0-1.487 1.487c-0.001 0.82 0.664 1.485 1.487 1.487z"></path><path d="M4.981 5.765v1.286H2.7c-1.103 0.008-1.105 1.425 0 1.423h2.993c0.438 0.002 0.711-0.351 0.712-0.748V5.765c0-1.072-1.421-1.072-1.424 0z m1.615-0.766H12.536c0.875-0.002 1.388 0.559 1.386 1.313v2.144H6.596V4.999z"></path><path d="M1.624 3.758c-0.002-1.17-1.625-1.17-1.624 0V13.137h1.66V10.719H14.287v2.4h1.615V5.875c0.004-1.234-1.637-1.234-1.633 0v2.891H1.624V3.758z"></path></g><g id="SvgjsG1864"><path d="M3.898 0s0.232 4.58 4.246 4.192S8.597 0.364 3.898 0m4.203 14.894a2.324 2.324 0 0 1-1.902 0.977c-0.64 0-1.267-0.3-1.689-0.721-0.864-0.943-1.985-3.051-1.986-3.052C1.897 10.822 1.56 9.837 1.56 8.839c0-2.126 1.72-3.968 3.848-3.968 1.05 0 1.996 0.42 2.692 1.099a3.835 3.835 0 0 1 2.69-1.099c2.129 0 3.848 1.842 3.849 3.967 0 0.997-0.334 1.983-0.964 3.259 0 0-1.12 2.108-1.984 3.051-0.423 0.422-1.049 0.722-1.689 0.722a2.321 2.321 0 0 1-1.899-0.977" fill-rule="evenodd"></path></g><g id="SvgjsG1853"><path d="M2.796 14.654h-1.184C0.792 14.653 0.001 14.052 0 13.006c0 0 0.001-7.471 0-7.494 0.001-0.926 0.773-1.629 1.612-1.63h1.184v10.772z m7.448-10.754V2.352c0.004-0.558-0.49-0.914-1.093-0.91 0 0-2.303-0.004-2.294 0-0.6-0.004-1.103 0.352-1.102 0.91v1.548H3.597v10.772h8.823V3.9h-2.176z m-0.81 0H6.547v-1.593h2.887v1.593z m3.779 10.754h1.184c0.814-0.002 1.605-0.602 1.603-1.648 0 0 0.003-7.471 0-7.494 0.003-0.926-0.77-1.63-1.602-1.631h-1.184v10.772z"></path></g><g id="SvgjsG1852"><path d="M13.031 12.687V1.875H9.957L9.97 0.071C9.957 0.078 4.189 2.651 4.189 2.651 3.256 3.097 2.919 3.747 2.919 4.632V13.347c0 1.389 1.116 2.528 2.401 2.528h7.737V14.275c-0.948-0.116-0.948-1.469-0.026-1.588z m-7.749 1.422c-0.848-0.005-0.844-1.194 0-1.194h5.399c-0.375 0.278-0.351 0.936 0.051 1.195H5.282z m6.021-2.884H6.577l3.38-1.524V3.628h1.347v7.597h-0.001z" fill-rule="evenodd"></path></g><g id="SvgjsG1860"><path d="M9.412 5.113c1.273 0 2.378 0.701 2.988 1.734l3.596 0.004v-1.949c0-0.725-0.584-1.314-1.299-1.314H1.295C0.578 3.588 0 4.176 0 4.902l0.004 1.932 6.418 0.005c0.614-1.029 1.715-1.725 2.99-1.725M3.361 2.97h-1.192l-0.138 0.434h1.429l-0.099-0.434zM14.11 2.738h-1.587L12.242 3.408H14.368l-0.258-0.67zM8.662 3.177h-1.366V2.508h1.366v0.669zM9.914 2.24h-3.857l-0.795 1.176h5.38L9.914 2.24z m2.672 4.955c0.199 0.443 0.316 0.93 0.316 1.449 0 1.949-1.563 3.531-3.49 3.531-1.93 0-3.493-1.582-3.493-3.531 0-0.519 0.116-1.006 0.316-1.451H0V12.514c0 0.721 0.577 1.309 1.295 1.309h13.401c0.716 0 1.299-0.588 1.3-1.309L16 7.195H12.586z"></path><path d="M11.315 7.484a1.717 1.717 0 0 0-0.199-0.278c-0.408-0.496-1.018-0.822-1.704-0.823-0.69 0-1.299 0.324-1.707 0.818-0.075 0.09-0.144 0.182-0.203 0.283-0.205 0.34-0.33 0.734-0.329 1.16 0 1.246 1.002 2.258 2.237 2.258 1.23 0 2.232-1.013 2.232-2.259 0-0.427-0.122-0.819-0.329-1.16"></path></g><g id="SvgjsG1867"><path d="M15.065 12.151H0.02c0 1.333 1.015 1.95 1.83 1.95h11.386c0.975 0 1.83-0.767 1.829-1.951zM12.853 2.166H1.869v7.208c0 0.976 0.843 1.75 1.755 1.75h7.121c1.031 0 1.731-0.863 1.731-1.749V8.773c2.031 0 3.505-1.527 3.505-3.303 0-1.815-1.445-3.303-3.126-3.303z m1.832 3.305c0 1.036-0.763 2.025-2.21 1.931V3.519l0.378 0 0 0.001c1.391 0 1.837 1.318 1.832 1.952v-0.001z"></path></g><g id="SvgjsG1856"><path d="M3.044 12.188V8.93c0-2.836 2.475-5.244 5.463-5.245 3.022-0.004 5.465 2.352 5.465 5.245v3.258h1.351V8.93C15.332 5.276 12.27 2.325 8.51 2.325 4.777 2.325 1.689 5.333 1.689 8.93v3.258h1.355z"></path><path d="M5.463 14.702l-1.781 0.006V9.593h1.785c0.921 2.372 0 5.111 0 5.111m6.049-5.109H13.298V14.702l-1.783 0.006c-0.921-2.373 0-5.113 0-5.113"></path></g><g id="SvgjsG1861"><path d="M15.819 2.872L8 9.063 0.182 2.872z m0 8.863L11.116 8l4.703-3.734zM0.161 4.266l4.702 3.734L0.161 11.735z"></path><path d="M10.255 8.663L8.011 10.434 5.766 8.663 0.182 13.068h15.656z"></path></g><g id="SvgjsG1855"><path d="M11.675 13.031H3.563V2.436h8.112v10.595z m-4.054 1.54a0.457 0.457 0 1 1 0-0.912 0.457 0.457 0 0 1 0 0.912zM6.921 1.287h1.395c0.196 0 0.196 0.356 0 0.356h-1.397c-0.199 0-0.199-0.356 0-0.356zM11.495 0.409H3.744C3.413 0.409 3.143 0.761 3.143 1.191V14.276c0 0.427 0.267 0.779 0.601 0.778h7.751c0.332 0 0.604-0.35 0.605-0.778V1.191c0-0.432-0.272-0.782-0.605-0.782z" fill-rule="evenodd"></path></g><g id="SvgjsG1859"><path d="M12.856 11.744c1.338 0 2.427-1.084 2.426-2.424 0-1.343-1.088-2.429-2.426-2.429-1.345 0-2.429 1.086-2.429 2.429 0 1.34 1.084 2.424 2.429 2.424m-9.684 0c1.338 0 2.429-1.084 2.429-2.424 0-1.343-1.09-2.429-2.429-2.429-1.342 0-2.429 1.086-2.428 2.429 0 1.34 1.086 2.424 2.428 2.424M9.832 6.912H6.203v2.42H9.832V6.912zM12.231 4.345h-8.397v1.567h8.397V4.346z m0.969 1.565H16v6.602H0v-6.602h2.866l0.005-1.422c0-0.534 0.429-0.968 0.963-0.968H12.229c0.53 0 0.963 0.433 0.963 0.968l0.009 1.422z"></path></g><g id="SvgjsG1863"><path d="M6.846 8.046l0.633 0.934h1.178l0.544-0.934-0.573-0.995h-1.181l-0.601 0.995zM7.331 15.562V13.449l-1.181 0.664-0.601-0.345V13.024l1.751-0.995V10.64l-1.271 0.816v-1.471l-1.214 0.7v1.994l-0.664 0.412-0.561-0.372V11.382L1.747 12.422 0.96 12.091V11.248l1.934-1.058-1.21-0.608v-0.771l0.687-0.376 1.735 1.022 1.206-0.696-0.03-0.022-1.232-0.707 1.197-0.742-1.201-0.696L2.311 7.614l-0.651-0.324v-0.769l1.174-0.66L0.96 4.844v-0.844l0.72-0.371 1.847 1.067v-1.36l0.557-0.375 0.682 0.393-0.004 2.035 1.241 0.709-0.005-1.438 1.301 0.7v-1.388L5.549 2.974v-0.738l0.601-0.348 1.181 0.664V0.443L8.006 0l0.682 0.443v2.109l1.224-0.678 0.615 0.407v0.664L8.715 3.972v1.388l1.239-0.755v1.511l1.277-0.696v-2.176l0.615-0.286 0.646 0.286v1.392l1.901-1.027 0.664 0.405v0.787l-1.856 1.055 1.161 0.651v0.751L13.76 7.592l-1.782-1.053-1.232 0.782 1.192 0.743-1.228 0.706 1.268 0.664L13.76 8.439l0.572 0.405v0.718L13.214 10.19l1.781 1.058v0.83l-0.754 0.344-1.749-0.995v1.317l-0.628 0.351-0.615-0.351V10.745l-1.295-0.737v1.388L8.715 10.64v1.389L10.466 13.024v0.787l-0.605 0.302-1.173-0.664v2.113L8.006 16l-0.675-0.438z"></path></g><g id="SvgjsG1866"><path d="M0 5.2h3.15v5.6H0z"></path><path d="M6.257 14.325L2.407 10.8v-5.511l3.85-3.614L7.141 8z"></path><path d="M6.257 1.675S7.14 4.852 7.14 8s-0.883 6.325-0.883 6.325m7.927 0.947l-1.304-0.671c0.015-0.03 1.562-3.093 1.562-6.825 0-3.707-1.789-6.755-1.807-6.785l1.258-0.754c0.082 0.137 2.015 3.412 2.015 7.538 0 4.101-1.653 7.361-1.724 7.497z"></path><path d="M11.799 13.516l-1.304-0.671c0.011-0.021 1.138-2.258 1.137-4.979 0-2.712-1.301-4.915-1.313-4.937l1.257-0.753c0.063 0.104 1.523 2.579 1.523 5.691 0 3.088-1.248 5.545-1.302 5.649z"></path><path d="M9.543 11.59l-1.304-0.671c0.006-0.012 0.696-1.387 0.696-3.053 0-1.64-0.793-3-0.801-3.013l1.259-0.752c0.041 0.069 1.009 1.708 1.01 3.765 0 2.033-0.823 3.656-0.859 3.724z"></path></g><g id="SvgjsG1854"><path d="M2.713 11.394H2.697v2.51c0.571-0.389 3.611-2.302 4-2.487h4.425c1.527 0 2.766-1.239 2.766-2.766V2.903A2.766 2.766 0 0 0 11.122 0.144h-8.068c-1.525 0-2.766 1.234-2.766 2.766v5.744a2.766 2.766 0 0 0 2.423 2.743z" fill-rule="evenodd"></path></g><g><path d="M15.902 13.495c0 0.236-0.191 0.426-0.428 0.426H0.579c-0.237 0-0.428-0.19-0.428-0.426V2.736c0-0.364 0.272-0.66 0.644-0.66h5.511c0.373 0 0.646 0.295 0.646 0.659v0.632h8.522c0.237 0 0.428 0.191 0.428 0.426v9.702z" fill-rule="evenodd"></path></g><g id="SvgjsG1872"><path d="M0.019 3.384l7.963 4.597-7.963 4.598V3.384v0zM8 3.385l7.963 4.597-7.963 4.598V3.384 3.385z" fill-rule="evenodd"></path></g><g id="SvgjsG1868"><path d="M12.865 12.36c-3.667 0-6.639-2.973-6.639-6.639 0-2.102 0.978-3.975 2.503-5.192-3.976 0.149-7.153 3.416-7.153 7.428 0 4.106 3.328 7.434 7.435 7.434 2.66 0 4.993-1.399 6.308-3.502a6.601 6.601 0 0 1-2.455 0.471z"></path></g><g id="SvgjsG1865"><path d="M3.755 2.315h2.494v11.128h-2.494zM13.507 0.537H16v11.261h-2.493z"></path><path d="M4.451 5.556l-0.696-3.24L16 0v3.167z"></path><path d="M0 13.443a3.124 2.606 0 1 0 6.249 0 3.124 2.606 0 1 0-6.249 0"></path><path d="M9.751 11.798a3.124 2.606 0 1 0 6.249 0 3.124 2.606 0 1 0-6.249 0"></path></g><g id="SvgjsG1862"><path d="M15.981 12.616l-7.963-4.598L15.981 3.421v9.195 0zM8 12.615L0.037 8.018 8 3.42v9.196V12.615z" fill-rule="evenodd"></path></g><g id="SvgjsG1874"><path d="M2.133 2.133h11.734v11.734H2.133z"></path></g><g id="SvgjsG1875"><use xlink:href="#SvgjsG1852" transform="translate(0, 0) scale(2)" fill="rgba(22, 22, 29, 1)"></use><use xlink:href="#SvgjsG1853" transform="translate(0, 62) scale(2)" fill="rgba(22, 22, 29, 1)"></use><use xlink:href="#SvgjsG1854" transform="translate(0, 124) scale(2)" fill="rgba(22, 22, 29, 1)"></use><use xlink:href="#SvgjsG1855" transform="translate(0, 186) scale(2)" fill="rgba(22, 22, 29, 1)"></use><use xlink:href="#SvgjsG1856" transform="translate(0, 248) scale(2)" fill="rgba(22, 22, 29, 1)"></use><use xlink:href="#SvgjsG1857" transform="translate(0, 310) scale(2)" fill="rgba(22, 22, 29, 1)"></use><use xlink:href="#SvgjsG1858" transform="translate(0, 372) scale(2)" fill="rgba(22, 22, 29, 1)"></use><use xlink:href="#SvgjsG1859" transform="translate(0, 434) scale(2)" fill="rgba(22, 22, 29, 1)"></use><use xlink:href="#SvgjsG1860" transform="translate(0, 496) scale(2)" fill="rgba(22, 22, 29, 1)"></use><use xlink:href="#SvgjsG1861" transform="translate(0, 558) scale(2)" fill="rgba(22, 22, 29, 1)"></use><use xlink:href="#SvgjsG1862" transform="translate(62, 0) scale(2)" fill="rgba(22, 22, 29, 1)"></use><use xlink:href="#SvgjsG1863" transform="translate(62, 62) scale(2)" fill="rgba(22, 22, 29, 1)"></use><use xlink:href="#SvgjsG1864" transform="translate(62, 124) scale(2)" fill="rgba(22, 22, 29, 1)"></use><use xlink:href="#SvgjsG1865" transform="translate(62, 186) scale(2)" fill="rgba(22, 22, 29, 1)"></use><use xlink:href="#SvgjsG1857" transform="translate(62, 248) scale(2)" fill="rgba(22, 22, 29, 1)"></use><use xlink:href="#SvgjsG1866" transform="translate(62, 310) scale(2)" fill="rgba(22, 22, 29, 1)"></use><use xlink:href="#SvgjsG1853" transform="translate(62, 372) scale(2)" fill="rgba(22, 22, 29, 1)"></use><use xlink:href="#SvgjsG1867" transform="translate(62, 434) scale(2)" fill="rgba(22, 22, 29, 1)"></use><use xlink:href="#SvgjsG1866" transform="translate(62, 496) scale(2)" fill="rgba(22, 22, 29, 1)"></use><use xlink:href="#SvgjsG1858" transform="translate(62, 558) scale(2)" fill="rgba(22, 22, 29, 1)"></use><use xlink:href="#SvgjsG1868" transform="translate(124, 0) scale(2)" fill="rgba(22, 22, 29, 1)"></use><use xlink:href="#SvgjsG1852" transform="translate(124, 62) scale(2)" fill="rgba(22, 22, 29, 1)"></use><use xlink:href="#SvgjsG1856" transform="translate(124, 124) scale(2)" fill="rgba(22, 22, 29, 1)"></use><use xlink:href="#SvgjsG1869" transform="translate(124, 186) scale(2)" fill="rgba(22, 22, 29, 1)"></use><use xlink:href="#SvgjsG1858" transform="translate(124, 248) scale(2)" fill="rgba(22, 22, 29, 1)"></use><use xlink:href="#SvgjsG1870" transform="translate(124, 310) scale(2)" fill="rgba(22, 22, 29, 1)"></use><use xlink:href="#SvgjsG1856" transform="translate(124, 372) scale(2)" fill="rgba(22, 22, 29, 1)"></use><use xlink:href="#SvgjsG1863" transform="translate(124, 434) scale(2)" fill="rgba(22, 22, 29, 1)"></use><use xlink:href="#SvgjsG1856" transform="translate(124, 496) scale(2)" fill="rgba(22, 22, 29, 1)"></use><use xlink:href="#SvgjsG1871" transform="translate(124, 558) scale(2)" fill="rgba(22, 22, 29, 1)"></use><use xlink:href="#SvgjsG1872" transform="translate(186, 0) scale(2)" fill="rgba(22, 22, 29, 1)"></use><use xlink:href="#SvgjsG1859" transform="translate(186, 62) scale(2)" fill="rgba(22, 22, 29, 1)"></use><use xlink:href="#SvgjsG1854" transform="translate(186, 124) scale(2)" fill="rgba(22, 22, 29, 1)"></use><use xlink:href="#SvgjsG1859" transform="translate(186, 186) scale(2)" fill="rgba(22, 22, 29, 1)"></use><use xlink:href="#SvgjsG1852" transform="translate(186, 248) scale(2)" fill="rgba(22, 22, 29, 1)"></use><use xlink:href="#SvgjsG1873" transform="translate(186, 310) scale(2)" fill="rgba(22, 22, 29, 1)"></use><use xlink:href="#SvgjsG1860" transform="translate(186, 372) scale(2)" fill="rgba(22, 22, 29, 1)"></use><use xlink:href="#SvgjsG1863" transform="translate(186, 434) scale(2)" fill="rgba(22, 22, 29, 1)"></use><use xlink:href="#SvgjsG1853" transform="translate(186, 496) scale(2)" fill="rgba(22, 22, 29, 1)"></use><use xlink:href="#SvgjsG1870" transform="translate(186, 558) scale(2)" fill="rgba(22, 22, 29, 1)"></use><use xlink:href="#SvgjsG1869" transform="translate(248, 0) scale(2)" fill="rgba(22, 22, 29, 1)"></use><use xlink:href="#SvgjsG1860" transform="translate(248, 62) scale(2)" fill="rgba(22, 22, 29, 1)"></use><use xlink:href="#SvgjsG1863" transform="translate(248, 124) scale(2)" fill="rgba(22, 22, 29, 1)"></use><use xlink:href="#SvgjsG1854" transform="translate(248, 186) scale(2)" fill="rgba(22, 22, 29, 1)"></use><use xlink:href="#SvgjsG1852" transform="translate(248, 248) scale(2)" fill="rgba(22, 22, 29, 1)"></use><use xlink:href="#SvgjsG1873" transform="translate(248, 310) scale(2)" fill="rgba(22, 22, 29, 1)"></use><use xlink:href="#SvgjsG1861" transform="translate(248, 372) scale(2)" fill="rgba(22, 22, 29, 1)"></use><use xlink:href="#SvgjsG1870" transform="translate(248, 434) scale(2)" fill="rgba(22, 22, 29, 1)"></use><use xlink:href="#SvgjsG1857" transform="translate(248, 496) scale(2)" fill="rgba(22, 22, 29, 1)"></use><use xlink:href="#SvgjsG1857" transform="translate(248, 558) scale(2)" fill="rgba(22, 22, 29, 1)"></use><use xlink:href="#SvgjsG1860" transform="translate(310, 0) scale(2)" fill="rgba(22, 22, 29, 1)"></use><use xlink:href="#SvgjsG1864" transform="translate(310, 62) scale(2)" fill="rgba(22, 22, 29, 1)"></use><use xlink:href="#SvgjsG1872" transform="translate(310, 124) scale(2)" fill="rgba(22, 22, 29, 1)"></use><use xlink:href="#SvgjsG1872" transform="translate(310, 186) scale(2)" fill="rgba(22, 22, 29, 1)"></use><use xlink:href="#SvgjsG1860" transform="translate(310, 248) scale(2)" fill="rgba(22, 22, 29, 1)"></use><use xlink:href="#SvgjsG1853" transform="translate(310, 310) scale(2)" fill="rgba(22, 22, 29, 1)"></use><use xlink:href="#SvgjsG1852" transform="translate(310, 372) scale(2)" fill="rgba(22, 22, 29, 1)"></use><use xlink:href="#SvgjsG1867" transform="translate(310, 434) scale(2)" fill="rgba(22, 22, 29, 1)"></use><use xlink:href="#SvgjsG1870" transform="translate(310, 496) scale(2)" fill="rgba(22, 22, 29, 1)"></use><use xlink:href="#SvgjsG1857" transform="translate(310, 558) scale(2)" fill="rgba(22, 22, 29, 1)"></use><use xlink:href="#SvgjsG1867" transform="translate(372, 0) scale(2)" fill="rgba(22, 22, 29, 1)"></use><use xlink:href="#SvgjsG1863" transform="translate(372, 62) scale(2)" fill="rgba(22, 22, 29, 1)"></use><use xlink:href="#SvgjsG1870" transform="translate(372, 124) scale(2)" fill="rgba(22, 22, 29, 1)"></use><use xlink:href="#SvgjsG1855" transform="translate(372, 186) scale(2)" fill="rgba(22, 22, 29, 1)"></use><use xlink:href="#SvgjsG1860" transform="translate(372, 248) scale(2)" fill="rgba(22, 22, 29, 1)"></use><use xlink:href="#SvgjsG1869" transform="translate(372, 310) scale(2)" fill="rgba(22, 22, 29, 1)"></use><use xlink:href="#SvgjsG1852" transform="translate(372, 372) scale(2)" fill="rgba(22, 22, 29, 1)"></use><use xlink:href="#SvgjsG1863" transform="translate(372, 434) scale(2)" fill="rgba(22, 22, 29, 1)"></use><use xlink:href="#SvgjsG1858" transform="translate(372, 496) scale(2)" fill="rgba(22, 22, 29, 1)"></use><use xlink:href="#SvgjsG1862" transform="translate(372, 558) scale(2)" fill="rgba(22, 22, 29, 1)"></use><use xlink:href="#SvgjsG1856" transform="translate(434, 0) scale(2)" fill="rgba(22, 22, 29, 1)"></use><use xlink:href="#SvgjsG1852" transform="translate(434, 62) scale(2)" fill="rgba(22, 22, 29, 1)"></use><use xlink:href="#SvgjsG1866" transform="translate(434, 124) scale(2)" fill="rgba(22, 22, 29, 1)"></use><use xlink:href="#SvgjsG1874" transform="translate(434, 186) scale(2)" fill="rgba(22, 22, 29, 1)"></use><use xlink:href="#SvgjsG1872" transform="translate(434, 248) scale(2)" fill="rgba(22, 22, 29, 1)"></use><use xlink:href="#SvgjsG1863" transform="translate(434, 310) scale(2)" fill="rgba(22, 22, 29, 1)"></use><use xlink:href="#SvgjsG1857" transform="translate(434, 372) scale(2)" fill="rgba(22, 22, 29, 1)"></use><use xlink:href="#SvgjsG1859" transform="translate(434, 434) scale(2)" fill="rgba(22, 22, 29, 1)"></use><use xlink:href="#SvgjsG1861" transform="translate(434, 496) scale(2)" fill="rgba(22, 22, 29, 1)"></use><use xlink:href="#SvgjsG1852" transform="translate(434, 558) scale(2)" fill="rgba(22, 22, 29, 1)"></use><use xlink:href="#SvgjsG1854" transform="translate(496, 0) scale(2)" fill="rgba(22, 22, 29, 1)"></use><use xlink:href="#SvgjsG1872" transform="translate(496, 62) scale(2)" fill="rgba(22, 22, 29, 1)"></use><use xlink:href="#SvgjsG1853" transform="translate(496, 124) scale(2)" fill="rgba(22, 22, 29, 1)"></use><use xlink:href="#SvgjsG1872" transform="translate(496, 186) scale(2)" fill="rgba(22, 22, 29, 1)"></use><use xlink:href="#SvgjsG1863" transform="translate(496, 248) scale(2)" fill="rgba(22, 22, 29, 1)"></use><use xlink:href="#SvgjsG1858" transform="translate(496, 310) scale(2)" fill="rgba(22, 22, 29, 1)"></use><use xlink:href="#SvgjsG1864" transform="translate(496, 372) scale(2)" fill="rgba(22, 22, 29, 1)"></use><use xlink:href="#SvgjsG1852" transform="translate(496, 434) scale(2)" fill="rgba(22, 22, 29, 1)"></use><use xlink:href="#SvgjsG1854" transform="translate(496, 496) scale(2)" fill="rgba(22, 22, 29, 1)"></use><use xlink:href="#SvgjsG1869" transform="translate(496, 558) scale(2)" fill="rgba(22, 22, 29, 1)"></use><use xlink:href="#SvgjsG1858" transform="translate(558, 0) scale(2)" fill="rgba(22, 22, 29, 1)"></use><use xlink:href="#SvgjsG1854" transform="translate(558, 62) scale(2)" fill="rgba(22, 22, 29, 1)"></use><use xlink:href="#SvgjsG1858" transform="translate(558, 124) scale(2)" fill="rgba(22, 22, 29, 1)"></use><use xlink:href="#SvgjsG1870" transform="translate(558, 186) scale(2)" fill="rgba(22, 22, 29, 1)"></use><use xlink:href="#SvgjsG1857" transform="translate(558, 248) scale(2)" fill="rgba(22, 22, 29, 1)"></use><use xlink:href="#SvgjsG1863" transform="translate(558, 310) scale(2)" fill="rgba(22, 22, 29, 1)"></use><use xlink:href="#SvgjsG1854" transform="translate(558, 372) scale(2)" fill="rgba(22, 22, 29, 1)"></use><use xlink:href="#SvgjsG1869" transform="translate(558, 434) scale(2)" fill="rgba(22, 22, 29, 1)"></use><use xlink:href="#SvgjsG1866" transform="translate(558, 496) scale(2)" fill="rgba(22, 22, 29, 1)"></use><use xlink:href="#SvgjsG1869" transform="translate(558, 558) scale(2)" fill="rgba(22, 22, 29, 1)"></use></g></defs></svg>